# xmcd
#
# Track frame offsets: 
#        150
#        9633
#        22745
#        41508
#        61354
#        75714
#        93724
#        105944
#        121729
#        135663
#        151226
#        172038
#        185598
#        195379
#        207728
#        218946
#        236255
#
# Disc length: 3369 seconds
#
# Revision: 1
# Processed by: cddbd v1.5.2PL0 Copyright (c) Steve Scherf et al.
# Submitted via: ExactAudioCopyFreeDBPlugin 1.0
#
DISCID=dd0d2711
DTITLE=Diverse Country-Musiker - Country Music Messe 2007 - CD01
DYEAR=2007
DGENRE=Country
TTITLE0=Jamestown Ferry - Birthday Song
TTITLE1=Arly Karlsen - Here's To You (The Man In Black)
TTITLE2=Mick D. and The Bravehearts - Adios Amigo
TTITLE3=Country Delight - Checoree
TTITLE4=Southern Star - Pretty Lady
TTITLE5=Jack Daniels Band - All You Ever Do Is Bring Me Down
TTITLE6=K.C.McKanzie - Holy Branches
TTITLE7=Dolly and Kenny - Applejacks
TTITLE8=The Road Brothers - At The End Of My Time
TTITLE9=Mandy Strobel - Flesh And Blood
TTITLE10=Barry P. Foley - Daddy Was A Factory Man
TTITLE11=Doug Adkins - Windows Shoppin'
TTITLE12=Britt Rose - You Ain't Woman Enough To Take My Man
TTITLE13=Marty Wolfe - Drawn To That Woman
TTITLE14=The Twang - I Still Haven't Found
TTITLE15=Henry Eye - One Night Stand
TTITLE16=Nighthawk - If Tomorrow Never Comes
EXTD=YEAR: 2007
EXTT0=
EXTT1=
EXTT2=
EXTT3=
EXTT4=
EXTT5=
EXTT6=
EXTT7=
EXTT8=
EXTT9=
EXTT10=
EXTT11=
EXTT12=
EXTT13=
EXTT14=
EXTT15=
EXTT16=
PLAYORDER=
